<?xml version="1.0" standalone="no"?>
<!DOCTYPE svg PUBLIC "-//W3C//DTD SVG 20010904//EN"
 "http://www.w3.org/TR/2001/REC-SVG-20010904/DTD/svg10.dtd">
<svg version="1.0" xmlns="http://www.w3.org/2000/svg"
 width="512.000000pt" height="512.000000pt" viewBox="0 0 512.000000 512.000000"
 preserveAspectRatio="xMidYMid meet">

<g transform="translate(0.000000,512.000000) scale(0.100000,-0.100000)"
fill="#000000" stroke="none">
<path d="M0 4941 l0 -178 57 -7 c32 -4 105 -18 162 -32 101 -25 111 -26 540
-29 244 -2 469 1 511 7 41 5 165 13 275 18 123 5 263 17 365 33 236 36 375 43
477 23 49 -9 172 -18 300 -22 211 -6 221 -5 330 20 78 18 139 26 205 26 130 0
297 15 623 56 266 34 351 52 369 82 3 6 59 23 123 38 114 26 116 27 93 44 -20
15 -21 18 -5 23 9 4 26 7 38 8 18 0 17 3 -10 16 -38 19 -43 33 -10 33 18 0 19
2 7 10 -10 6 -818 10 -2232 10 l-2218 0 0 -179z"/>
<path d="M5020 5105 c7 -8 19 -15 26 -15 8 0 14 -4 14 -10 0 -5 7 -10 15 -10
8 0 15 -4 15 -9 0 -5 7 -11 15 -15 12 -4 15 3 15 34 l0 40 -56 0 c-49 0 -55
-2 -44 -15z"/>
<path d="M2540 4606 c0 -24 -56 -76 -83 -76 -39 0 -87 -12 -82 -20 3 -4 -2
-11 -11 -14 -9 -4 -14 -13 -10 -21 3 -10 -1 -18 -11 -22 -24 -9 -63 -57 -52
-63 5 -3 -1 -12 -12 -20 -12 -8 -27 -21 -35 -27 -7 -7 -15 -13 -19 -13 -11 0
-38 -31 -32 -37 4 -3 -7 -18 -24 -34 -17 -16 -29 -34 -27 -39 2 -6 39 22 82
63 43 41 89 77 102 80 13 2 24 2 24 0 0 -4 -27 -39 -88 -111 l-22 -27 21 -3
c11 -2 34 2 49 8 16 6 54 14 87 16 128 9 141 14 168 54 27 41 37 44 145 47
132 3 140 4 140 14 0 11 54 12 64 2 4 -5 11 -8 14 -9 55 -6 101 -18 99 -27 -1
-5 8 -13 20 -16 13 -3 31 -13 41 -22 12 -10 34 -15 65 -14 29 2 51 -3 58 -11
13 -16 49 -19 49 -4 0 5 27 9 60 9 45 -1 63 -5 69 -18 9 -16 61 -34 134 -47
25 -4 45 -16 60 -36 17 -21 38 -32 80 -42 58 -14 97 -38 97 -61 0 -25 41 -65
67 -65 25 0 26 1 19 55 -7 61 5 72 26 25 7 -16 16 -30 20 -30 3 0 9 -13 13
-30 4 -16 13 -30 20 -30 11 0 12 7 4 32 -5 18 -9 46 -9 61 0 16 -4 26 -8 23
-5 -3 -16 10 -25 29 -9 19 -21 35 -27 35 -5 0 -9 4 -7 8 1 5 -13 25 -30 46
-18 20 -33 31 -33 25 0 -6 -9 0 -20 14 -11 14 -20 28 -20 32 0 12 -46 50 -83
69 -20 11 -35 21 -33 23 7 7 -27 37 -57 51 -15 6 -43 12 -62 12 -45 0 -65 9
-58 26 4 11 -5 14 -38 15 -41 0 -97 15 -74 19 18 3 -39 18 -73 19 -24 1 -42
10 -62 31 -15 17 -35 30 -43 30 -8 0 -17 7 -21 15 -8 22 -606 23 -606 1z m-70
-176 c0 -5 -12 -10 -26 -10 -14 0 -23 4 -19 10 3 6 15 10 26 10 10 0 19 -4 19
-10z m951 -7 c21 -6 46 -17 57 -25 35 -24 -113 -21 -153 3 -16 11 -45 19 -62
19 -18 0 -33 5 -33 11 0 13 137 7 191 -8z m374 -253 c3 -5 2 -10 -4 -10 -5 0
-13 5 -16 10 -3 6 -2 10 4 10 5 0 13 -4 16 -10z"/>
<path d="M2103 4205 c-18 -20 -16 -25 7 -25 13 0 20 7 20 20 0 23 -10 25 -27
5z"/>
<path d="M1995 4090 c3 -5 8 -10 11 -10 2 0 4 5 4 10 0 6 -5 10 -11 10 -5 0
-7 -4 -4 -10z"/>
<path d="M1950 4038 c0 -12 -26 -38 -38 -38 -9 0 -14 -15 -26 -85 -3 -16 -3
-21 0 -11 5 15 8 16 14 5 6 -9 10 -6 15 14 4 15 11 27 16 27 5 0 9 8 9 18 0
11 8 18 21 19 31 3 36 13 15 29 -11 8 -14 14 -8 14 7 0 12 4 12 8 0 5 -7 9
-15 9 -8 0 -15 -4 -15 -9z"/>
<path d="M4000 3911 c0 -11 7 -26 15 -35 17 -16 20 -56 5 -56 -16 0 -12 -33
10 -75 11 -22 20 -46 20 -55 0 -8 7 -23 15 -34 13 -18 14 -17 21 8 3 14 3 41
0 59 -4 17 -8 40 -9 50 -1 9 -5 17 -9 17 -4 0 -8 9 -8 20 0 11 -4 20 -10 20
-5 0 -10 16 -10 35 0 19 -4 35 -10 35 -5 0 -10 7 -10 15 0 8 -4 15 -10 15 -5
0 -10 -9 -10 -19z"/>
<path d="M3738 3687 c-40 -64 -48 -212 -12 -224 17 -6 85 68 106 113 12 28 16
53 12 71 -7 30 -51 83 -68 83 -6 -1 -23 -20 -38 -43z"/>
<path d="M1800 3519 c0 -13 -25 -39 -39 -39 -6 0 -15 -9 -21 -19 -10 -19 -24
-20 -263 -23 -437 -4 -1216 11 -1410 29 l-67 6 0 -193 c0 -165 2 -191 15 -186
8 3 121 8 252 11 411 9 605 16 688 26 44 5 139 14 210 19 72 5 188 14 259 20
99 9 131 9 140 -1 8 -8 8 -13 -2 -16 -6 -3 -10 -9 -6 -14 3 -5 -2 -16 -10 -25
-13 -12 -16 -42 -16 -154 0 -77 5 -163 12 -192 l12 -53 12 80 c7 44 13 113 13
153 1 75 18 125 46 135 12 5 15 -1 15 -28 0 -45 20 -45 44 -1 21 39 16 57 -14
49 -16 -4 -19 -2 -14 13 8 23 49 64 63 64 10 0 41 51 41 68 0 5 20 39 44 76
47 71 76 153 59 164 -5 4 -12 13 -15 21 -5 17 -48 26 -48 10z m35 -59 c3 -5 1
-10 -4 -10 -6 0 -11 5 -11 10 0 6 2 10 4 10 3 0 8 -4 11 -10z"/>
<path d="M4048 3431 c-42 -122 -75 -191 -95 -198 -25 -9 -33 -23 -33 -60 0
-25 4 -31 15 -27 11 5 14 0 11 -17 -2 -13 2 -31 10 -39 7 -8 13 -18 13 -23 0
-4 3 -23 7 -42 7 -38 19 -52 29 -35 10 16 25 12 25 -7 0 -15 2 -16 10 -3 7 11
10 5 10 -25 0 -40 0 -40 14 -14 7 15 17 79 21 144 l7 118 82 -7 c245 -19 381
-25 478 -19 67 4 128 2 161 -5 28 -6 109 -13 180 -15 l127 -4 0 140 0 140
-503 -6 -503 -5 -10 41 c-5 22 -13 42 -19 44 -5 2 -22 -33 -37 -76z"/>
<path d="M3920 2610 c0 -5 5 -10 10 -10 6 0 10 5 10 10 0 6 -4 10 -10 10 -5 0
-10 -4 -10 -10z"/>
<path d="M1686 2543 c-8 -44 -1 -83 15 -83 5 0 9 -7 9 -15 0 -9 7 -18 15 -21
8 -4 15 -15 15 -25 0 -19 32 -131 50 -176 5 -11 40 -46 78 -77 60 -48 70 -60
74 -93 4 -31 0 -43 -23 -65 -23 -23 -36 -28 -78 -28 -48 0 -54 -3 -128 -67
-42 -38 -93 -74 -113 -82 -21 -8 -99 -16 -198 -20 -148 -5 -165 -8 -178 -26
-23 -31 4 -46 59 -33 23 5 69 7 102 4 33 -3 90 -2 126 2 56 7 78 15 135 54 81
54 114 65 214 74 86 7 206 45 235 74 25 26 12 51 -33 65 -28 8 -34 17 -53 77
-11 38 -29 78 -39 91 -11 12 -45 53 -77 91 -32 38 -72 84 -89 101 -17 17 -34
42 -37 57 -4 15 -15 34 -24 43 -9 10 -24 40 -33 69 l-17 51 -7 -42z"/>
<path d="M3785 2370 c-3 -5 -2 -10 4 -10 5 0 13 5 16 10 3 6 2 10 -4 10 -5 0
-13 -4 -16 -10z"/>
<path d="M3610 2190 c-8 -5 -11 -12 -7 -16 4 -4 15 0 24 9 18 18 8 23 -17 7z"/>
<path d="M3177 1943 c-30 -34 -31 -68 -3 -96 14 -14 26 -35 26 -45 0 -45 21
-81 51 -87 47 -10 47 2 0 44 -40 36 -42 42 -41 87 4 117 -1 132 -33 97z"/>
<path d="M1083 1682 c-17 -11 -27 -59 -13 -67 13 -8 63 22 55 35 -3 5 -1 11 5
15 5 3 10 10 10 16 0 11 -40 12 -57 1z"/>
<path d="M3585 1679 c-99 -5 -199 -6 -223 -3 -40 5 -42 4 -39 -18 3 -20 16
-26 88 -46 121 -33 138 -36 153 -23 9 8 61 11 152 10 83 0 151 4 168 10 16 6
36 9 45 6 23 -7 45 10 38 29 -4 9 -6 20 -6 24 0 10 -75 21 -141 20 -30 -1
-136 -5 -235 -9z"/>
<path d="M4046 1564 c-3 -9 -6 -31 -6 -50 0 -19 -4 -42 -10 -52 -5 -9 -25 -51
-43 -92 -24 -52 -47 -86 -76 -110 -22 -19 -41 -43 -41 -53 0 -10 -10 -28 -23
-40 -12 -13 -31 -36 -41 -52 -11 -17 -28 -36 -38 -43 -10 -7 -18 -18 -18 -23
0 -6 -9 -22 -20 -36 -23 -30 -26 -68 -6 -88 11 -12 15 -10 27 11 7 14 19 22
26 20 7 -3 15 -1 18 4 4 6 15 10 25 10 10 0 26 10 34 22 9 12 16 18 16 13 1
-6 8 3 16 18 10 18 21 26 30 23 7 -3 13 -2 13 2 -6 36 3 62 20 62 27 0 51 10
51 22 0 18 90 98 111 98 12 0 19 -5 16 -12 -2 -7 5 -23 16 -35 l20 -23 -24
-27 c-18 -20 -20 -25 -6 -20 9 4 17 2 17 -3 0 -5 6 -15 14 -23 12 -12 23 -94
16 -119 -2 -5 -3 -14 -4 -20 0 -7 -16 -14 -33 -16 -33 -3 -39 -16 -34 -72 1
-10 -11 -20 -31 -25 -21 -7 -37 -21 -47 -42 -16 -32 -20 -34 -85 -37 -13 -1
-22 -11 -28 -32 -5 -18 -16 -34 -27 -37 -15 -3 -18 -1 -14 12 2 9 -4 4 -14
-12 -10 -15 -25 -29 -33 -31 -8 -3 -26 -8 -39 -11 -15 -5 -21 -3 -17 3 3 6 2
13 -4 17 -5 3 -10 0 -10 -8 0 -8 -7 -20 -16 -28 -12 -9 -14 -26 -10 -70 3 -41
1 -61 -9 -69 -7 -6 -16 -23 -20 -38 -3 -14 -22 -51 -41 -82 -34 -56 -45 -110
-21 -110 7 0 19 9 27 20 11 15 16 16 23 7 7 -9 10 -9 14 1 2 6 17 12 33 12 24
0 30 -5 35 -31 5 -22 10 -28 15 -18 6 9 10 4 15 -17 3 -16 13 -40 21 -54 8
-14 18 -33 21 -42 3 -10 9 -18 14 -18 5 0 9 -5 9 -11 0 -12 25 -39 36 -39 4 0
22 -16 41 -35 l34 -35 569 0 570 0 0 119 c0 70 -4 121 -10 123 -5 2 -66 57
-134 123 -68 66 -135 129 -150 140 -14 11 -26 25 -26 30 -1 14 -57 75 -70 75
-5 0 -10 5 -10 10 0 6 -22 33 -50 60 -27 27 -50 54 -50 60 0 12 -41 73 -52 78
-5 2 -8 8 -8 14 0 6 -18 28 -41 49 -22 21 -38 43 -34 49 3 5 1 10 -4 10 -6 0
-11 7 -11 15 0 8 -4 15 -9 15 -5 0 -12 18 -16 40 -5 29 -19 53 -51 84 -24 25
-44 48 -44 52 0 11 -34 33 -52 34 -10 0 -18 5 -18 10 0 6 -6 10 -14 10 -7 0
-19 7 -26 15 -7 8 -15 13 -19 10 -11 -6 -34 24 -59 79 -19 39 -21 51 -10 57
10 7 10 9 1 9 -9 0 -13 17 -13 53 0 68 -19 101 -21 37 l-1 -45 -8 46 c-12 72
-52 135 -64 103z m313 -577 c8 -10 7 -18 -3 -32 -13 -18 -14 -18 -25 3 -18 35
4 57 28 29z m-29 -237 c0 -5 -9 -10 -21 -10 -11 0 -17 5 -14 10 3 6 13 10 21
10 8 0 14 -4 14 -10z m93 -7 c-13 -2 -35 -2 -50 0 -16 2 -5 4 22 4 28 0 40 -2
28 -4z m37 -38 c0 -8 -4 -15 -10 -15 -5 0 -10 7 -10 15 0 8 5 15 10 15 6 0 10
-7 10 -15z m149 -267 c1 -31 5 -38 21 -38 25 0 35 -36 21 -73 -14 -37 -67 -38
-101 -2 -13 14 -18 25 -12 25 8 0 10 9 6 25 -6 23 -3 25 26 25 l33 0 -6 63
c-3 37 -2 52 3 37 4 -14 8 -42 9 -62z"/>
<path d="M853 1552 c-72 -20 -163 -91 -163 -129 0 -28 4 -28 38 -4 15 10 45
24 67 30 80 25 107 42 102 62 -3 12 4 26 20 39 30 24 19 24 -64 2z"/>
<path d="M608 1370 c-42 -23 -53 -36 -38 -45 14 -9 56 19 70 45 13 24 14 24
-32 0z"/>
<path d="M308 1210 c-15 -11 -30 -20 -36 -20 -18 0 -48 -35 -44 -52 4 -19 27
-24 37 -9 3 5 22 15 42 22 20 6 57 25 82 40 l45 29 -36 0 c-20 0 -43 2 -50 5
-8 3 -26 -3 -40 -15z"/>
<path d="M170 1100 c0 -5 -9 -10 -20 -10 -23 0 -42 -31 -30 -49 6 -11 13 -10
33 5 33 25 53 64 32 64 -8 0 -15 -4 -15 -10z"/>
<path d="M13 995 c-24 -27 -15 -41 22 -37 34 4 52 32 20 32 -8 0 -15 5 -15 10
0 14 -13 12 -27 -5z"/>
<path d="M3890 778 c-14 -15 -17 -24 -8 -29 16 -10 44 9 45 32 2 25 -12 24
-37 -3z"/>
<path d="M1178 659 c-16 -6 -34 -26 -47 -51 -23 -46 -18 -69 25 -117 21 -24
33 -29 61 -27 19 1 39 9 44 17 17 27 10 122 -11 157 -21 34 -29 36 -72 21z"/>
<path d="M286 451 c-4 -6 -18 -8 -32 -5 -18 5 -24 3 -22 -7 2 -8 -4 -13 -14
-13 -10 1 -18 -3 -18 -10 0 -7 -3 -6 -9 2 -6 11 -11 10 -25 -3 -9 -9 -16 -12
-16 -7 0 5 -11 12 -24 14 -24 5 -28 -5 -11 -31 5 -10 4 -16 -3 -19 -17 -5 -15
-29 3 -29 14 0 19 9 16 33 -1 7 14 14 33 16 19 2 33 1 30 -3 -2 -4 0 -10 6
-14 5 -3 10 -11 10 -18 0 -8 -3 -8 -12 1 -13 13 -32 17 -24 4 6 -10 -16 -46
-31 -49 -7 -2 -13 2 -13 7 0 22 -41 9 -50 -16 -6 -14 -15 -22 -21 -18 -7 4
-10 -6 -7 -32 3 -36 1 -39 -24 -42 l-28 -3 0 -105 0 -104 66 0 c51 0 72 5 91
20 14 11 39 20 55 20 32 0 98 56 98 83 0 8 13 17 30 21 17 3 45 9 63 12 17 4
47 20 65 35 40 35 45 37 215 43 l138 5 41 -39 c34 -34 47 -40 83 -40 45 0 110
-22 98 -33 -3 -4 -1 -7 5 -7 7 0 12 -7 12 -15 0 -8 9 -15 20 -15 49 0 113 -26
141 -57 l28 -33 121 0 c66 0 120 3 120 8 -1 15 -100 71 -161 91 -34 12 -81 21
-105 21 -49 0 -134 33 -134 52 -1 18 -45 67 -76 83 -19 9 -34 11 -51 4 -32
-12 -84 2 -111 29 -32 32 -140 62 -203 56 -91 -9 -159 -10 -159 -2 0 5 -6 8
-14 8 -7 0 -27 23 -44 50 -23 38 -37 50 -55 50 -14 0 -38 3 -55 6 -17 4 -32 1
-36 -5z"/>
<path d="M2928 362 c-27 -14 -48 -30 -48 -35 0 -5 -16 -27 -35 -48 -37 -41
-45 -69 -20 -69 17 0 20 -16 5 -25 -18 -11 0 -25 18 -15 9 5 28 11 42 14 62
13 131 120 116 180 -8 31 -17 31 -78 -2z"/>
<path d="M2549 63 c-13 -10 -33 -23 -44 -29 -45 -25 -28 -34 64 -34 81 0 91 2
91 18 0 54 -63 80 -111 45z"/>
</g>
</svg>
